<svg width="90" height="41" viewBox="0 0 90 41" fill="none" xmlns="http://www.w3.org/2000/svg">
<g id="Logo Siscom ERP">
<path id="ERP" d="M68.4046 38.6316V31.3956H72.8603V32.8875H70.08V34.196H72.4612V35.6779H70.08V37.1086H72.9014V38.6316H68.4036H68.4046ZM78.1812 32.7141H77.8965V34.7174H78.2615C78.6976 34.7174 79.0295 34.6281 79.2591 34.4527C79.4897 34.2772 79.603 34.0235 79.603 33.6947C79.603 33.3498 79.4927 33.1001 79.2691 32.9457C79.0465 32.7903 78.6836 32.7141 78.1802 32.7141H78.1812ZM76.2211 38.6316V31.3956H78.081C78.6776 31.3956 79.1388 31.4347 79.4676 31.5129C79.7965 31.5911 80.0863 31.7205 80.3399 31.905C80.6096 32.0975 80.8192 32.3361 80.9676 32.6198C81.116 32.9046 81.1891 33.2044 81.1891 33.5192C81.1891 33.9754 81.0728 34.3745 80.8412 34.7174C80.6096 35.0593 80.2758 35.327 79.8396 35.5215L82.0474 38.6316H80.0752L78.1431 35.7902H77.8975V38.6316H76.2211ZM86.6976 32.7241H86.463V34.6562H86.7768C87.213 34.6562 87.5448 34.573 87.7745 34.4035C88.0051 34.2351 88.1183 33.9925 88.1183 33.6776C88.1183 33.3478 88.0061 33.1071 87.7795 32.9537C87.5529 32.8003 87.1919 32.7231 86.6976 32.7231V32.7241ZM84.7355 38.6316V31.3956H86.5974C87.1699 31.3956 87.6241 31.4367 87.9599 31.52C88.2958 31.6032 88.5936 31.7425 88.8543 31.939C89.124 32.1346 89.3336 32.3802 89.4819 32.675C89.6303 32.9698 89.7035 33.2816 89.7035 33.6104C89.7035 34.3434 89.4428 34.9229 88.9215 35.352C88.4021 35.7811 87.6952 35.9957 86.8019 35.9957C86.7096 35.9957 86.6395 35.9957 86.5923 35.9937C86.5462 35.9917 86.5021 35.9887 86.463 35.9847V38.6316H84.7355Z" fill="#092371"/>
<g id="SISCOM LOGO">
<path d="M53.4061 17.7809C52.7735 17.1262 52.1268 16.6429 51.4791 16.3221C50.8243 16.0102 50.1406 15.8458 49.4257 15.8458C48.1834 15.8458 47.1708 16.2779 46.3827 17.1332C45.5936 17.9884 45.1996 19.0893 45.1996 20.4359C45.1996 21.7824 45.5936 22.8682 46.3747 23.7024C47.1557 24.5356 48.1754 24.9527 49.4327 24.9527C50.1766 24.9527 50.9136 24.7963 51.6575 24.4845C52.3935 24.1717 53.1304 23.7105 53.8673 23.0858L53.6448 26.9841C53.0121 27.4082 52.3283 27.735 51.5833 27.9586C50.8394 28.1812 50.0653 28.2935 49.2542 28.2935C48.392 28.2935 47.5658 28.1601 46.7697 27.8914C45.9806 27.6237 45.2447 27.2217 44.5749 26.6933C43.6295 25.9493 42.9086 25.042 42.4022 23.9701C41.9039 22.8983 41.6512 21.7303 41.6512 20.474C41.6512 19.3881 41.8377 18.3684 42.2087 17.4159C42.5807 16.4644 43.1241 15.6232 43.83 14.8943C44.5448 14.1654 45.37 13.6069 46.3155 13.2209C47.253 12.8339 48.2426 12.6404 49.2843 12.6404C50.1095 12.6404 50.8985 12.7517 51.6425 12.9823C52.3935 13.2129 53.1083 13.5628 53.7931 14.024L53.4212 17.7809H53.4061ZM59.2605 20.474C59.2605 21.7463 59.6325 22.8251 60.3834 23.6804C61.1274 24.5436 62.0498 24.9748 63.1437 24.9748C64.2446 24.9748 65.167 24.5426 65.911 23.6874C66.6549 22.8251 67.0269 21.7533 67.0269 20.474C67.0269 19.1866 66.6549 18.1077 65.911 17.2455C65.167 16.3822 64.2446 15.9511 63.1437 15.9511C62.0498 15.9511 61.1354 16.3822 60.3834 17.2455C59.6395 18.1087 59.2605 19.1876 59.2605 20.474ZM55.652 20.474C55.652 19.3881 55.8385 18.3684 56.2175 17.4239C56.5895 16.4714 57.1479 15.6232 57.8769 14.8793C58.5617 14.1644 59.3648 13.6149 60.2792 13.2349C61.1866 12.8479 62.1471 12.6624 63.1437 12.6624C64.1403 12.6624 65.0998 12.8559 66.0152 13.243C66.9306 13.63 67.7418 14.1804 68.4557 14.9023C69.1695 15.6242 69.713 16.4574 70.0769 17.4089C70.4489 18.3544 70.6274 19.3811 70.6274 20.481C70.6274 21.4034 70.501 22.2667 70.2403 23.0778C69.9797 23.8889 69.6007 24.6249 69.0943 25.2946C68.3795 26.2461 67.5022 26.9831 66.4534 27.5114C65.4117 28.0398 64.3027 28.3005 63.1357 28.3005C62.1461 28.3005 61.1936 28.107 60.2862 27.72C59.3788 27.333 58.5747 26.7825 57.8678 26.0606C57.1389 25.3167 56.5885 24.4685 56.2085 23.524C55.8285 22.5865 55.643 21.5678 55.643 20.481L55.651 20.472L55.652 20.474ZM72.2937 27.8172L75.3438 12.6554H75.5964L81.139 22.2145L86.3687 12.6554H86.6294L89.7015 27.8172H86.3687L85.1264 21.1146L81.1841 28.3607H80.9465L76.7133 21.0174L75.426 27.8243H72.3018L72.2947 27.8172H72.2937Z" fill="#092371"/>
<path fill-rule="evenodd" clip-rule="evenodd" d="M37.8723 29.2009C35.5432 33.04 29.3539 41.037 18.3661 40.9999C8.61247 40.9628 2.22268 32.4294 1.1659 31.2543C0.89018 30.9495 1.08469 30.8302 1.34438 31.0678C4.18684 33.7238 19.9132 44.3998 33.1329 29.9749H34.8444C35.9302 29.9749 36.9639 29.6992 37.8723 29.2079V29.2009Z" fill="#092371"/>
<path fill-rule="evenodd" clip-rule="evenodd" d="M2.18559 11.6879C4.56684 7.8117 10.7411 -0.0439308 21.6246 0.000185032C31.3783 0.0372825 37.7681 8.5707 38.8248 9.74578C39.1006 10.0506 38.907 10.1699 38.6464 9.93227C35.7969 7.2763 20.0625 -3.40676 6.8358 11.0482H4.96088C3.97128 11.0482 3.0268 11.2798 2.18559 11.6879Z" fill="#092371"/>
<path fill-rule="evenodd" clip-rule="evenodd" d="M19.6825 12.6413H20.3002C20.9619 12.6413 21.5053 13.1918 21.5053 13.8686V14.9995C21.5053 15.6773 20.9619 16.2278 20.3002 16.2278H19.6825C19.0208 16.2278 18.4774 15.6773 18.4774 14.9995V13.8686C18.4774 13.1918 19.0208 12.6413 19.6825 12.6413ZM19.8089 18.5037H20.1809C20.9098 18.5037 21.5053 19.1143 21.5053 19.8573V27.0141C21.5053 27.758 20.9108 28.3676 20.1809 28.3676H19.8089C19.08 28.3676 18.4844 27.7651 18.4844 27.0141V19.8573C18.4844 19.1123 19.08 18.5037 19.8089 18.5037ZM15.2559 12.6644C14.6754 14.7328 12.8005 16.2498 10.5987 16.2498H0.303644C0.883166 14.1814 2.7591 12.6644 4.95988 12.6644H15.2559ZM5.14637 24.7752C2.93656 24.7752 1.06164 26.3002 0.481112 28.3606H11.462C13.6718 28.3606 15.5457 26.8356 16.1262 24.7752C16.2455 24.3511 16.3127 23.8969 16.3127 23.4367C16.3127 20.9371 14.4528 18.8547 12.0726 18.5418C11.872 18.5198 11.6705 18.5047 11.463 18.5047H0.296631C0.683647 20.5732 1.95599 22.0902 3.4439 22.0902H10.9957C11.7246 22.0902 12.3202 22.6927 12.3202 23.4367C12.3202 24.1736 11.7256 24.7752 10.9957 24.7752H5.14637ZM28.5137 24.7752C26.3039 24.7752 24.429 26.3002 23.8565 28.3606H34.8374C37.0472 28.3606 38.9221 26.8356 39.4946 24.7752C39.6139 24.3511 39.6811 23.8969 39.6811 23.4367C39.6811 20.9371 37.8282 18.8547 35.448 18.5418C35.2464 18.5198 35.0459 18.5047 34.8374 18.5047H23.671C24.0651 20.5732 25.3304 22.0902 26.8173 22.0902H34.3681C35.097 22.0902 35.6856 22.6927 35.6856 23.4367C35.6856 24.1736 35.091 24.7752 34.3681 24.7752H28.5137ZM29.4803 12.6644H38.6233C38.0428 14.7328 36.1678 16.2498 33.9661 16.2498H23.677C24.2576 14.1814 26.1325 12.6644 28.3423 12.6644H29.4953H29.4803Z" fill="#092371"/>
</g>
</g>
</svg>
